<svg id="Capa_1" enable-background="new 0 0 512.22 512.22" height="512" viewBox="0 0 512.22 512.22" width="512" xmlns="http://www.w3.org/2000/svg">
    <g>
        <g>
            <g>
                <path d="m104.08 239.771c-8.27 0-15 6.73-15 15s6.73 15 15 15 15-6.73 15-15-6.73-15-15-15zm72.99-96.42c-4.14-7.17-13.29-9.65-20.49-5.5-7.16 4.14-9.63 13.33-5.49 20.5 4.15 7.17 13.31 9.63 20.49 5.49 7.16-4.14 9.63-13.33 5.49-20.49zm-72.99 96.42c-8.27 0-15 6.73-15 15s6.73 15 15 15 15-6.73 15-15-6.73-15-15-15zm72.99-96.42c-4.14-7.17-13.29-9.65-20.49-5.5-7.16 4.14-9.63 13.33-5.49 20.5 4.15 7.17 13.31 9.63 20.49 5.49 7.16-4.14 9.63-13.33 5.49-20.49zm-72.99 96.42c-8.27 0-15 6.73-15 15s6.73 15 15 15 15-6.73 15-15-6.73-15-15-15zm67.5 105.93c-7.15-4.13-16.33-1.71-20.49 5.49-4.14 7.16-1.67 16.36 5.49 20.49 7.17 4.14 16.35 1.67 20.49-5.49s1.67-16.35-5.49-20.49zm5.49-202.35c-4.14-7.17-13.29-9.65-20.49-5.5-7.16 4.14-9.63 13.33-5.49 20.5 4.15 7.17 13.31 9.63 20.49 5.49 7.16-4.14 9.63-13.33 5.49-20.49zm120 207.84c-4.15-7.18-13.31-9.64-20.49-5.49-7.16 4.14-9.63 13.33-5.49 20.49s13.32 9.63 20.49 5.49c7.16-4.13 9.63-13.33 5.49-20.49zm0 0c-4.15-7.18-13.31-9.64-20.49-5.49-7.16 4.14-9.63 13.33-5.49 20.49s13.32 9.63 20.49 5.49c7.16-4.13 9.63-13.33 5.49-20.49zm-125.49-5.49c-7.15-4.13-16.33-1.71-20.49 5.49-4.14 7.16-1.67 16.36 5.49 20.49 7.17 4.14 16.35 1.67 20.49-5.49s1.67-16.35-5.49-20.49zm-67.5-105.93c-8.27 0-15 6.73-15 15s6.73 15 15 15 15-6.73 15-15-6.73-15-15-15zm72.99-96.42c-4.14-7.17-13.29-9.65-20.49-5.5-7.16 4.14-9.63 13.33-5.49 20.5 4.15 7.17 13.31 9.63 20.49 5.49 7.16-4.14 9.63-13.33 5.49-20.49zm176.97 150.06c-31.83-29.76-31.83-44.46 0-74.22 16.26-15.2 36.49-34.12 36.49-67.89 0-57.79-44.69-97.72-101.35-113.51-138.43-38.59-289.18 63.3-289.18 218.51 0 121.21 97.37 226.32 230.23 226.32 80.02 0 160.3-42.82 160.3-121.32 0-33.77-20.23-52.69-36.49-67.89zm-212.46-181.54c21.563-12.421 49.033-5.069 61.47 16.48 12.41 21.48 5.02 49.06-16.47 61.47-21.53 12.42-49.02 5.08-61.47-16.47-12.41-21.49-5.02-49.07 16.47-61.48zm-82.5 142.9c0-24.81 20.19-45 45-45s45 20.19 45 45-20.19 45-45 45-45-20.19-45-45zm143.97 126.42c-12.41 21.49-39.87 28.94-61.47 16.47-21.49-12.4-28.88-39.98-16.47-61.47 12.43-21.54 39.93-28.91 61.47-16.47 21.387 12.355 28.931 39.877 16.47 61.47zm103.53 16.47c-21.45 12.39-48.99 5.15-61.47-16.47-12.41-21.49-5.02-49.06 16.47-61.47 21.6-12.443 49.052-5.03 61.47 16.47 12.41 21.49 5.02 49.07-16.47 61.47zm16.47-224.31c-12.43 21.52-39.92 28.91-61.47 16.47-21.49-12.41-28.88-39.99-16.47-61.47 12.43-21.54 39.93-28.91 61.47-16.48 21.49 12.41 28.88 39.99 16.47 61.48zm-31.47-35.5c-7.21-4.155-16.365-1.653-20.49 5.5-4.14 7.16-1.67 16.35 5.49 20.49 7.18 4.14 16.34 1.69 20.49-5.49 4.14-7.17 1.67-16.36-5.49-20.5zm-15 207.85c-7.16 4.14-9.63 13.33-5.49 20.49s13.32 9.63 20.49 5.49c7.16-4.13 9.63-13.33 5.49-20.49-4.15-7.18-13.31-9.64-20.49-5.49zm-105-181.86c7.16-4.14 9.63-13.33 5.49-20.49-4.14-7.17-13.29-9.65-20.49-5.5-7.16 4.14-9.63 13.33-5.49 20.5 4.15 7.17 13.31 9.63 20.49 5.49zm0 181.86c-7.15-4.13-16.33-1.71-20.49 5.49-4.14 7.16-1.67 16.36 5.49 20.49 7.17 4.14 16.35 1.67 20.49-5.49s1.67-16.35-5.49-20.49zm-67.5-105.93c-8.27 0-15 6.73-15 15s6.73 15 15 15 15-6.73 15-15-6.73-15-15-15zm72.99-96.42c-4.14-7.17-13.29-9.65-20.49-5.5-7.16 4.14-9.63 13.33-5.49 20.5 4.15 7.17 13.31 9.63 20.49 5.49 7.16-4.14 9.63-13.33 5.49-20.49zm-72.99 96.42c-8.27 0-15 6.73-15 15s6.73 15 15 15 15-6.73 15-15-6.73-15-15-15zm67.5 105.93c-7.15-4.13-16.33-1.71-20.49 5.49-4.14 7.16-1.67 16.36 5.49 20.49 7.17 4.14 16.35 1.67 20.49-5.49s1.67-16.35-5.49-20.49zm5.49-202.35c-4.14-7.17-13.29-9.65-20.49-5.5-7.16 4.14-9.63 13.33-5.49 20.5 4.15 7.17 13.31 9.63 20.49 5.49 7.16-4.14 9.63-13.33 5.49-20.49zm-5.49 202.35c-7.15-4.13-16.33-1.71-20.49 5.49-4.14 7.16-1.67 16.36 5.49 20.49 7.17 4.14 16.35 1.67 20.49-5.49s1.67-16.35-5.49-20.49zm-67.5-105.93c-8.27 0-15 6.73-15 15s6.73 15 15 15 15-6.73 15-15-6.73-15-15-15zm72.99-96.42c-4.14-7.17-13.29-9.65-20.49-5.5-7.16 4.14-9.63 13.33-5.49 20.5 4.15 7.17 13.31 9.63 20.49 5.49 7.16-4.14 9.63-13.33 5.49-20.49zm0 0c-4.14-7.17-13.29-9.65-20.49-5.5-7.16 4.14-9.63 13.33-5.49 20.5 4.15 7.17 13.31 9.63 20.49 5.49 7.16-4.14 9.63-13.33 5.49-20.49z"/>
            </g>
        </g>
    </g>
    <g>
        <g>
            <path d="m467.185 480.562c-5.583 0-10.832-3.129-13.414-8.296-3.23-6.464-31.551-64.076-31.551-96.687 0-.013 0-.026 0-.039 0-16.494 9.016-31.645 23.528-39.53 6.522-3.561 13.959-5.45 21.481-5.45 7.493 0 14.922 1.885 21.482 5.451 14.506 7.904 23.508 23.06 23.508 39.559 0 34.392-30.023 65.096-30.031 89.995-.003 8.71-7.136 14.997-15.003 14.997z"/></g><g><path d="m495.594 240.963c1.03-14.259 1.682-28.808 1.686-42.823.02-41.56-5.65-118.84-10.01-151.65-1.21-9.13-8.96-15.93-18.17-15.93h-1.1c-10.62 0-19.58 7.9-20.95 18.43-4.33 33.39-9.75 108.61-9.77 149.13-.004 14.018.639 28.572 1.66 42.835z"/><path d="m467.23 300.56c7.334 0 14.63 1.094 21.624 3.196 1.365-9.871 2.771-20.987 4.033-32.793l-51.261-.007c1.254 11.801 2.651 22.914 4.009 32.782 6.968-2.088 14.258-3.178 21.595-3.178z"/>
        </g>
    </g>    
</svg>